# xmcd
#
# Track frame offsets: 
#        150
#        13350
#        27995
#        42624
#        60604
#        74091
#        87868
#        102274
#        117018
#        131773
#        147136
#        157650
#        167511
#        179536
#        183343
#        191154
#        200323
#        210901
#        219333
#        223008
#        231646
#        242432
#        251717
#        259991
#        266093
#        273888
#
# Disc length: 3695 seconds
#
# Revision: 0
# Processed by: cddbd v1.5.1PL0 Copyright (c) Steve Scherf et al.
# Submitted via: ExactAudioCopy v0.95a5
#
DISCID=880e6d1a
DTITLE=Jerry Bake - The All Stars EMINEM
DYEAR=2004
DGENRE=Hip-Hop
TTITLE0=Superman
TTITLE1=Cleanin Out My Closet
TTITLE2=Stan
TTITLE3=Sing For The moment
TTITLE4=Lose Yourself
TTITLE5=My Name Is
TTITLE6=The Way I Am
TTITLE7=Guilty Conscience
TTITLE8=Role Model
TTITLE9=8 Mile
TTITLE10=Business
TTITLE11=The Real Slim Shady
TTITLE12=Without Me
TTITLE13=Superman
TTITLE14=Cleanin Out My Closet
TTITLE15=Stan
TTITLE16=Sing For The Moment
TTITLE17=Lose Yourself
TTITLE18=My Name Is
TTITLE19=The Way I Am
TTITLE20=Guilty Conscience
TTITLE21=role Model
TTITLE22=8 Mile
TTITLE23=Business
TTITLE24=The Real Slim Shady
TTITLE25=Without Me
EXTD=
EXTT0=
EXTT1=
EXTT2=
EXTT3=
EXTT4=
EXTT5=
EXTT6=
EXTT7=
EXTT8=
EXTT9=
EXTT10=
EXTT11=
EXTT12=
EXTT13=
EXTT14=
EXTT15=
EXTT16=
EXTT17=
EXTT18=
EXTT19=
EXTT20=
EXTT21=
EXTT22=
EXTT23=
EXTT24=
EXTT25=
PLAYORDER=
